<?xml version="1.0" encoding="utf-8"?>
<svg xmlns="http://www.w3.org/2000/svg" width="963.54999" height="920.03003" viewBox="0 0 963.54999 920.03003" fill="none" version="1.1" id="svg859" xmlns:bx="https://boxy-svg.com">
  <defs id="defs859">
    <path id="path-0" style="fill: none;" d="M -126.578 -245.651 C -87.933 -228.041 -66.911 -225.62 -60.376 -212.55 C -53.997 -205.343 -48.773 -206.757 -42.997 -206.757 C -35.254 -223.072 -32.989 -234.143 -22.309 -244.823 C -11.647 -249.327 -11.09 -253.465 -4.103 -246.478 C 12.537 -235.936 20.577 -234.748 30.653 -244.823 C 40.792 -254.135 65.908 -234.825 72.029 -229.928 C 82.368 -216.075 90.406 -221.224 101.82 -225.79 L 106.786 -226.618 C 113.366 -227.558 120.006 -228.273 126.646 -228.273"/>
    <style bx:fonts="Cascadia Mono">@import url(https://fonts.googleapis.com/css2?family=Cascadia+Mono%3Aital%2Cwght%400%2C200..700%3B1%2C200..700&amp;display=swap);</style>
  </defs>
  <ellipse style="fill: rgb(216, 216, 216); fill-opacity: 0; stroke: rgb(33, 33, 33);" cx="0" rx="165" ry="165"/>
  <ellipse style="fill: rgb(216, 216, 216); fill-opacity: 0; stroke: rgb(33, 33, 33); stroke-width: 1;" rx="82" ry="82" cy="0"/>
  <ellipse style="fill: rgb(216, 216, 216); fill-opacity: 0; stroke: rgb(33, 33, 33); stroke-width: 1;" rx="33" ry="33" cy="0" cx="0"/>
  <ellipse style="fill: rgb(216, 216, 216); fill-opacity: 0; stroke: rgb(33, 33, 33); stroke-width: 1;" cx="0" rx="248" ry="248" cy="0"/>
  <text style="fill: rgb(33, 33, 33); font-family: &quot;Cascadia Mono&quot;; font-size: 10px; white-space: pre;" transform="matrix(1, 0, 0, 1, 0, 0)"><tspan x="-10" y="245">10nm</tspan><tspan x="-4.931" dy="1em">​</tspan></text>
  <text style="fill: rgb(33, 33, 33); font-family: &quot;Cascadia Mono&quot;; font-size: 10px; white-space: pre;" transform="matrix(1, 0, 0, 1, -0, -0)"><tspan x="-10" y="162">5nm</tspan><tspan x="-10" dy="1em">​</tspan></text>
  <text style="fill: rgb(33, 33, 33); font-family: &quot;Cascadia Mono&quot;; font-size: 10px; white-space: pre;" transform="matrix(1, 0, 0, 1, 0, 0)"><tspan x="-10" y="79">2.5nm</tspan><tspan x="-10" dy="1em">​</tspan></text>
  <text style="fill: rgb(33, 33, 33); font-family: &quot;Cascadia Mono&quot;; font-size: 10px; white-space: pre;" transform="matrix(1, 0, 0, 1, 0, -0)"><tspan x="-10" y="30">1nm</tspan><tspan x="-10" dy="1em">​</tspan></text>
</svg>