<?xml version="1.0" encoding="UTF-8" standalone="no"?>
<!-- Created with Inkscape (http://www.inkscape.org/) -->

<svg
   version="1.1"
   id="svg1"
   width="82.897812"
   height="100.04962"
   viewBox="0 0 82.897812 100.04962"
   xmlns="http://www.w3.org/2000/svg"
   xmlns:svg="http://www.w3.org/2000/svg">
  <defs
     id="defs1" />
  <g
     id="layer30"
     transform="translate(-1148.9689,-538.02039)">
    <path
       style="fill:#000000"
       d="m 1189.1995,634.92763 c -0.6025,-1.72831 -1.2333,-3.14237 -1.4018,-3.14237 -0.1685,0 -3.4145,1.12738 -7.2134,2.50528 -3.7989,1.37791 -7.0858,2.32658 -7.3042,2.10815 -0.3571,-0.35709 6.4033,-6.45141 12.5936,-11.35277 2.2548,-1.78524 2.3174,-2.1422 1.25,-7.11929 -0.618,-2.8819 -1.1237,-10.39267 -1.1237,-16.6906 0,-8.77538 -0.3062,-11.45077 -1.3104,-11.45077 -3.5278,0 -14.3808,5.43434 -23.2776,11.65555 -13.8266,9.66851 -12.8408,9.23844 -12.044,5.25462 0.4463,-2.23185 2.5624,-5.30291 6.1561,-8.93449 4.6928,-4.74235 5.4759,-6.07423 5.4759,-9.3137 0,-2.30581 0.3964,-3.53505 1.0163,-3.1519 0.559,0.34546 0.8137,0.956 0.566,1.35676 -0.2477,0.40076 -0.1324,1.24312 0.2563,1.87193 0.4609,0.74583 2.6976,-0.60322 6.434,-3.88058 4.5622,-4.00179 5.7551,-5.66822 5.8636,-8.19103 0.1012,-2.35321 0.2475,-2.58892 0.5695,-0.91716 0.2384,1.2375 0.6388,2.25 0.8898,2.25 0.2511,0 2.6948,-1.67106 5.4305,-3.71346 l 4.974,-3.71345 v -13.7395 c 0,-13.49359 1.0731,-19.30407 3.4223,-18.53052 2.6653,0.87762 3.5486,5.55385 3.563,18.86176 l 0.015,13.66483 4.884,3.58517 c 5.6223,4.12717 5.8134,4.18175 6.4267,1.83517 0.3002,-1.14899 0.4971,-0.86361 0.5733,0.83097 0.078,1.73312 1.8952,4.27902 5.532,7.75 2.9788,2.84297 5.6788,5.16903 6,5.16903 0.3212,0 0.584,-0.87345 0.584,-1.94099 0,-1.06754 0.45,-2.2191 1,-2.55901 0.6005,-0.37116 1,0.92021 1,3.23277 0,3.25834 0.7047,4.53674 4.5802,8.30902 4.972,4.83956 7.72,9.23759 7.2302,11.57162 -0.3291,1.56846 0.3035,1.95009 -15.4763,-9.33493 -3.9412,-2.81859 -10.3537,-6.27463 -14.25,-7.6801 -3.8962,-1.40546 -7.096,-2.45256 -7.1106,-2.32689 -0.015,0.12568 -0.1976,6.97851 -0.4067,15.22851 -0.209,8.25 -0.6765,15.92411 -1.0387,17.05359 -0.5391,1.681 0.7293,3.19276 6.9911,8.33215 4.2074,3.4532 7.4393,6.48906 7.182,6.74635 -0.2573,0.25729 -3.2061,-0.45468 -6.5529,-1.58215 -7.6879,-2.58985 -7.8054,-2.5825 -9.4689,0.59243 l -1.3845,2.64238 z"
       id="path10" />
  </g>
</svg>
