<?xml version="1.0" encoding="UTF-8" standalone="no"?>
<!-- Created with Inkscape (http://www.inkscape.org/) -->

<svg
   version="1.1"
   id="svg1"
   width="88.733452"
   height="101.12009"
   viewBox="0 0 88.733452 101.12009"
   xmlns="http://www.w3.org/2000/svg"
   xmlns:svg="http://www.w3.org/2000/svg">
  <defs
     id="defs1" />
  <g
     id="layer29"
     transform="translate(-1025.9851,-545.16517)">
    <path
       style="fill:#000000"
       d="m 1069.4958,643.28526 c -1.1656,-4.52772 -1.1335,-4.51694 -7.2196,-2.42302 -3.1247,1.07506 -6.145,1.80008 -6.7118,1.61115 -0.5668,-0.18893 1.7805,-3.23355 5.2161,-6.76582 5.6371,-5.79558 6.1793,-6.71508 5.5564,-9.42231 -0.3797,-1.65 -0.6285,-8.7375 -0.5529,-15.75 l 0.1375,-12.75 h -5.647 c -4.8665,0 -7.5736,0.90409 -19.5861,6.54129 -20.6697,9.69978 -19.7991,7.72875 4.2144,-9.54129 8.9264,-6.41974 9.0384,-6.55248 9.0676,-10.75 0.025,-3.57348 0.348,-4.25 2.0296,-4.25 1.4667,0 2,0.66666 2,2.5 0,2.96716 -0.034,2.96089 4.4661,0.81478 L 1066,581.41483 v -16.204 c 0,-13.97316 0.2421,-16.50303 1.7588,-18.37598 2.9359,-3.62576 6.0209,-1.13887 6.7612,5.45041 0.1236,1.1 0.2822,8.09047 0.3524,15.53439 l 0.1276,13.53439 3.0021,1.77336 c 3.3699,1.99067 4.9979,1.51038 4.9979,-1.47449 0,-1.3801 0.551,-1.90819 1.75,-1.67728 1.7784,0.34249 1.9039,0.67268 2.125,5.59011 0.1052,2.34033 2.0726,4.23265 12.4281,11.95368 12.2434,9.12869 16.9209,13.26584 14.9984,13.26584 -0.5547,0 -7.1643,-2.925 -14.6879,-6.5 -11.5296,-5.47849 -14.5179,-6.5 -19.0146,-6.5 h -5.3353 l -0.5142,16.25 -0.5143,16.25 6.1035,6.25 c 6.2672,6.41759 6.1151,7.28404 -0.8387,4.77883 -6.0943,-2.19556 -7.3295,-1.94057 -8.3374,1.72117 l -0.8946,3.25 z"
       id="path6" />
  </g>
</svg>
