<?xml version="1.0" encoding="UTF-8" standalone="no"?>
<!-- Created with Inkscape (http://www.inkscape.org/) -->

<svg
   version="1.1"
   id="svg1"
   width="89.096504"
   height="103.12238"
   viewBox="0 0 89.096504 103.12238"
   xmlns="http://www.w3.org/2000/svg"
   xmlns:svg="http://www.w3.org/2000/svg">
  <defs
     id="defs1" />
  <g
     id="layer31"
     transform="translate(-770.24246,-543.07302)">
    <path
       style="fill:#000000"
       d="m 796,645.88757 c 0,-0.94605 1.53588,-2.29552 11.41785,-10.03207 3.96913,-3.10742 5.47225,-4.8985 5.03537,-6 C 811.21212,626.72633 808,608.61753 808,604.7498 c 0,-3.44706 -0.29369,-3.96351 -2.25,-3.95661 -2.30932,0.008 -21.48695,3.85927 -30.03831,6.03211 -2.63356,0.66917 -5.01796,0.98701 -5.29866,0.70632 -0.2807,-0.2807 -0.20718,-1.71835 0.16338,-3.19478 0.76267,-3.03873 3.36257,-4.83319 18.17359,-12.54346 7.99545,-4.16224 10.253,-5.79476 10.26365,-7.42202 0.0416,-6.35845 3.04946,-8.73647 5.1683,-4.0861 1.23003,2.69961 2.66563,3.25388 3.23761,1.25 0.19624,-0.6875 0.87104,-8.675 1.49957,-17.75 1.06128,-15.32357 1.31472,-16.67255 3.55453,-18.91999 2.06382,-2.07085 2.64432,-2.22699 4.02365,-1.08225 2.65063,2.19983 3.49989,4.58262 3.99427,11.2068 1.71574,22.98956 2.31881,27.79544 3.48791,27.79544 0.44203,0 1.09356,-1.1549 1.44783,-2.56645 0.98606,-3.92877 3.90578,-2.75165 4.65831,1.87806 0.33884,2.08454 1.02068,4.15648 1.51522,4.60429 0.49453,0.44782 6.29915,3.6399 12.89915,7.09351 6.6,3.45362 12.51355,6.67881 13.14122,7.16711 1.38928,1.08078 2.35662,6.82348 1.1494,6.82348 -0.86233,0 -15.17791,-3.29547 -21.79062,-5.01623 -1.925,-0.50093 -6.0875,-1.21416 -9.25,-1.58496 l -5.75,-0.67418 -0.0184,2.88768 c -0.0158,2.48097 -0.90172,8.02378 -3.49824,21.88769 -0.30903,1.65 -0.78156,3.73091 -1.05008,4.62425 -0.33699,1.12116 1.97605,3.5991 7.46761,8 12.10629,9.70191 11.72167,9.88586 -6.2035,2.967 -2.71578,-1.04825 -9.6913,-1.10967 -9.69536,-0.0854 -10e-4,0.27824 -1.2395,1.04763 -2.752,1.70975 -7.82707,3.42642 -10.25,4.22697 -10.25,3.38668 z"
       id="path5" />
  </g>
</svg>
