<?xml version="1.0" encoding="UTF-8" standalone="no"?>
<!-- Created with Inkscape (http://www.inkscape.org/) -->

<svg
   version="1.1"
   id="svg1"
   width="654"
   height="482"
   viewBox="0 0 654 482"
   xmlns="http://www.w3.org/2000/svg"
   xmlns:svg="http://www.w3.org/2000/svg">
  <defs
     id="defs1" />
  <g
     id="g1">
    <path
       style="fill:#000000"
       d="m 273.58873,457.34273 c -34.61434,-6.84035 -57.23388,-11.75515 -57.73469,-12.54466 -0.45288,-0.71394 -0.83031,-6.28902 -0.83873,-12.38908 -0.008,-6.10005 -0.3069,-17.82778 -0.66329,-26.06163 l -0.64798,-14.97062 43.89798,-14.82827 c 24.14389,-8.15555 43.96356,-14.87782 44.04371,-14.93837 0.33566,-0.25359 -1.71853,-20.6597 -2.72905,-27.1101 -2.71624,-17.33849 -9.76731,-39.00166 -20.83112,-64 -2.90923,-6.57333 -4.6037,-9.20194 -6.2844,-9.74894 C 270.53552,260.33914 215.95,252.55901 150.5,243.46188 85.05,234.36475 30.556739,226.72308 29.403865,226.48039 27.089845,225.99326 27.092199,226.03182 25.359462,160.25 L 24.69436,135 H 151.312 c 119.56603,0 126.66961,-0.0975 127.55089,-1.75 0.51329,-0.9625 5.28077,-15.7 10.59439,-32.75 5.31363,-17.05 9.97199,-31.280225 10.35193,-31.622722 C 300.18914,68.534781 307.25,63.779382 315.5,58.309724 l 15,-9.944832 15.01014,5.871832 15.01014,5.871832 9.89684,38.195722 c 5.44326,21.007652 10.1637,38.498862 10.48986,38.869372 0.32616,0.3705 51.66802,1.83138 114.09302,3.24639 62.425,1.41501 119.0125,2.84468 125.75,3.17704 l 12.25,0.60431 -0.0136,41.1493 c -0.008,22.63212 -0.25897,42.06227 -0.55879,43.17811 -0.5108,1.90104 -8.30281,3.11356 -123.73556,19.25466 -116.30234,16.2627 -123.2857,17.35142 -124.89417,19.4712 -3.30044,4.34961 -10.71351,18.33312 -13.74269,25.92325 C 363.04182,310.75102 360,327.78434 360,349.48385 v 13.03633 l 38.25,13.06758 38.25,13.06758 1.4001,29.27055 c 1.06334,22.23047 1.11984,29.44375 0.23489,29.99068 -0.64086,0.39607 -17.4709,3.77442 -37.4001,7.50744 -19.92919,3.73302 -43.88489,8.22236 -53.23489,9.97631 l -17,3.18901 z"
       id="path1" />
  </g>
</svg>
