<?xml version="1.0" encoding="UTF-8" standalone="no"?>
<!-- Created with Inkscape (http://www.inkscape.org/) -->

<svg
   version="1.1"
   id="svg1"
   width="118.18488"
   height="58"
   viewBox="0 0 118.18488 58"
   xmlns="http://www.w3.org/2000/svg"
   xmlns:svg="http://www.w3.org/2000/svg">
  <defs
     id="defs1" />
  <g
     id="layer17"
     transform="translate(-488.93963,-419.78526)">
    <path
       style="fill:#000000"
       d="m 539,475.26026 c 0,-2.00943 0.61682,-2.64837 3.02081,-3.12917 1.66144,-0.33229 3.22349,-0.93211 3.47122,-1.33294 0.44693,-0.72315 -1.06663,-16.6768 -1.94611,-20.51289 -0.31844,-1.38894 -1.31209,-2.02169 -3.25223,-2.07097 -26.37533,-0.67 -50.47961,-1.92085 -50.92575,-2.64271 -1.26803,-2.05171 -2.32981,-1.88783 37.63206,-5.80832 15.86123,-1.55607 16,-1.59416 16,-4.39172 0,-3.20256 3.87702,-15.58628 4.87967,-15.58628 1.29375,0 3.04564,4.65884 4.36274,11.60196 1.36376,7.1891 0.92952,6.88829 11.25759,7.79853 21.71001,1.91338 42.58628,4.35245 43.29182,5.05799 1.50091,1.50091 -2.08823,2.34142 -10.53298,2.46664 -14.50658,0.21509 -42.01999,1.80922 -43.13662,2.49934 -0.78773,0.48685 -2.57687,14.52911 -2.61344,20.51197 -0.005,0.79004 1.45372,1.8154 3.24122,2.27859 2.5628,0.66409 3.25,1.36473 3.25,3.31357 0,2.44547 -0.0944,2.47141 -9,2.47141 -8.9571,0 -9,-0.012 -9,-2.525 z"
       id="path18" />
  </g>
</svg>
