<?xml version="1.0" encoding="UTF-8" standalone="no"?>
<!-- Created with Inkscape (http://www.inkscape.org/) -->

<svg
   version="1.1"
   id="svg1"
   width="72"
   height="91.431396"
   viewBox="0 0 72 91.431396"
   xmlns="http://www.w3.org/2000/svg"
   xmlns:svg="http://www.w3.org/2000/svg">
  <defs
     id="defs1" />
  <g
     id="layer1"
     transform="translate(-652,-252.78526)">
    <path
       style="fill:#000000"
       d="m 687.75947,344.14415 c -0.27125,-0.47239 -1.24446,-3.16178 -2.16269,-5.97642 l -1.66951,-5.11753 -15.96364,0.50937 C 652.53616,334.05183 652,334.00227 652,332.08408 c 0,-1.09168 6.30565,-10.42681 14.01255,-20.74475 13.45551,-18.01413 14.0683,-19.044 15.41505,-25.90698 3.12842,-15.94228 3.11246,-16.11452 -1.212,-13.08556 -1.88527,1.3205 -1.69499,0.67439 1.23267,-4.18567 1.90414,-3.16096 4.01732,-7.91365 4.69595,-10.56153 0.67864,-2.64789 1.54032,-4.81433 1.91487,-4.81433 0.37454,0 1.2593,2.1375 1.96612,4.75 0.70682,2.6125 1.58782,5.2 1.95777,5.75 0.36994,0.55 1.91578,3.17451 3.43519,5.83226 l 2.76255,4.83226 -2.62157,-1.71772 c -1.44186,-0.94475 -2.83713,-1.50216 -3.1006,-1.23869 -0.26346,0.26346 0.46393,5.30575 1.61644,11.20507 l 2.09547,10.72604 13.91477,18.47393 C 717.73835,321.55907 724,330.81298 724,331.96266 c 0,2.05102 -0.29218,2.08144 -15.54081,1.61798 -8.66709,-0.26342 -15.78596,-0.0757 -16.09506,0.42446 -0.30484,0.49323 -1.35463,3.16955 -2.33287,5.94737 -0.97824,2.77782 -2.00055,4.66407 -2.27179,4.19168 z"
       id="path19" />
  </g>
</svg>
