<?xml version="1.0" encoding="UTF-8" standalone="no"?>
<!-- Created with Inkscape (http://www.inkscape.org/) -->

<svg
   version="1.1"
   id="svg1"
   width="73.98381"
   height="102.83596"
   viewBox="0 0 73.98381 102.83596"
   xmlns="http://www.w3.org/2000/svg"
   xmlns:svg="http://www.w3.org/2000/svg">
  <defs
     id="defs1" />
  <g
     id="layer24"
     transform="translate(-266,-539.18969)">
    <path
       style="fill:#000000"
       d="m 290,640.73754 c 0,-0.9651 1.575,-2.68401 3.5,-3.81978 2.79109,-1.64679 3.5,-2.68665 3.5,-5.13396 0,-1.6879 0.71051,-4.15329 1.57892,-5.47865 1.07711,-1.64388 1.45888,-4.00534 1.20122,-7.43026 -0.46944,-6.23992 -1.39519,-7.25143 -3.76331,-4.11195 l -1.84638,2.44781 -0.58148,-3.46275 c -0.31982,-1.90451 -0.69567,-5.48774 -0.83523,-7.96274 l -0.25374,-4.5 -13.25,-0.27903 c -7.2875,-0.15346 -13.25,-0.55125 -13.25,-0.88398 0,-0.33273 0.519,-2.33722 1.15333,-4.45443 0.99362,-3.31641 1.65138,-3.94088 4.75,-4.50963 1.97817,-0.36309 8.52589,-1.64569 14.55049,-2.85022 l 10.95382,-2.19004 0.36391,-17.91634 c 0.35198,-17.3288 1.86082,-27.45306 4.31769,-28.97149 0.52694,-0.32567 1.80886,1.35352 2.84871,3.73152 1.53609,3.51283 2.02393,7.989 2.6014,23.86931 l 0.71077,19.54567 6.62494,1.28635 c 3.64372,0.7075 7.74994,1.51153 9.12494,1.78674 1.375,0.2752 4.64676,0.84755 7.27057,1.27188 5.54396,0.89657 4.95594,0.41227 7.05871,5.81369 l 1.65453,4.25 -12.74191,0.0153 c -7.00804,0.008 -13.19603,0.34592 -13.75107,0.75 -0.55505,0.40408 -1.16285,3.43469 -1.35066,6.73469 -0.42806,7.52111 -1.42749,9.70016 -3.05459,6.6599 -1.85733,-3.47044 -2.89501,-2.53331 -3.61999,3.26919 -0.52377,4.19215 -0.31233,5.95163 0.92805,7.72251 0.8835,1.26137 1.60636,3.28148 1.60636,4.48911 0,3.55619 1.06205,5.34001 4.12118,6.92195 1.58335,0.81878 2.87882,2.31122 2.87882,3.31653 0,1.70984 -0.33683,1.74046 -5.21793,0.47432 -2.86986,-0.74443 -6.14679,-1.35351 -7.28207,-1.35351 -1.13528,0 -4.41221,0.60908 -7.28207,1.35351 C 290.39554,642.38968 290,642.35927 290,640.73754 Z"
       id="path7" />
  </g>
</svg>
