<?xml version="1.0" encoding="UTF-8" standalone="no"?>
<!-- Created with Inkscape (http://www.inkscape.org/) -->

<svg
   version="1.1"
   id="svg1"
   width="85"
   height="111.75539"
   viewBox="0 0 85 111.75539"
   xmlns="http://www.w3.org/2000/svg"
   xmlns:svg="http://www.w3.org/2000/svg">
  <defs
     id="defs1" />
  <g
     id="layer23"
     transform="translate(-155,-536.28526)">
    <path
       style="fill:#000000"
       d="m 180.0238,647.93505 c 0.0131,-0.35739 2.95225,-2.64574 6.53146,-5.08524 3.57921,-2.43949 6.98997,-5.0166 7.57947,-5.72689 0.76743,-0.92471 0.61651,-4.84099 -0.53146,-13.79088 C 192.72147,616.45736 192,606.77196 192,601.80894 c 0,-8.87697 -0.30941,-9.68927 -3.45615,-9.07339 -9.00494,1.76245 -29.13744,6.03931 -31.29385,6.64793 -1.67482,0.4727 -2.25,0.21709 -2.25,-0.99993 0,-1.10389 4.06035,-3.59738 12.5,-7.67636 l 12.5,-6.0414 v -4.94027 c 0,-4.2736 0.26989,-4.94026 2,-4.94026 1.54664,0 2,0.66666 2,2.94098 0,3.72968 0.732,4.10209 4.75,2.4166 L 192,578.77952 V 563.3109 c 0,-14.54693 0.15597,-15.81293 2.61766,-21.24713 l 2.61766,-5.77851 2.59224,5.5 c 2.38771,5.06603 2.6218,6.77471 2.96678,21.65544 0.3249,14.01461 0.59524,16.21921 2.0401,16.63655 0.91606,0.2646 2.45306,0.8053 3.41556,1.20154 1.43323,0.59004 1.75,0.18822 1.75,-2.21988 0,-3.43226 0.65719,-4.34243 2.59777,-3.59776 0.77122,0.29594 1.40223,1.86952 1.40223,3.49684 0,1.62731 0.40847,3.71666 0.90771,4.64301 0.49924,0.92634 6.34924,4.36929 13,7.65099 6.65076,3.2817 12.09229,6.57996 12.09229,7.32945 0,0.96592 -0.80076,1.18739 -2.75,0.76057 -1.5125,-0.33119 -4.0789,-0.84232 -5.7031,-1.13584 -1.62421,-0.29353 -6.57421,-1.37084 -11,-2.39402 -4.4258,-1.02318 -10.13239,-2.1661 -12.68132,-2.53982 l -4.63442,-0.6795 -0.66384,11.34621 c -0.36512,6.24042 -1.07669,14.49622 -1.58128,18.34622 -2.021,15.42009 -2.38592,14.17284 5.77597,19.74137 3.9809,2.716 7.23799,5.34122 7.23799,5.83381 0,0.4926 -2.3625,-0.0599 -5.25,-1.22776 -8.25406,-3.3384 -9.77655,-3.4619 -10.45999,-0.84844 l -0.58973,2.25513 -1.67615,-2.22213 -1.67616,-2.22213 -7.17399,2.49486 c -3.94569,1.37218 -7.16327,2.20246 -7.15018,1.84508 z"
       id="path3" />
  </g>
</svg>
