<?xml version="1.0" encoding="UTF-8" standalone="no"?>
<!-- Created with Inkscape (http://www.inkscape.org/) -->

<svg
   version="1.1"
   id="svg1"
   width="106"
   height="96.405769"
   viewBox="0 0 106 96.405769"
   xmlns="http://www.w3.org/2000/svg"
   xmlns:svg="http://www.w3.org/2000/svg">
  <defs
     id="defs1" />
  <g
     id="layer25"
     transform="translate(-374,-542.32752)">
    <path
       style="fill:#000000"
       d="m 406,636.71915 c 0,-1.31737 1.00578,-2.03195 3.52524,-2.50461 1.93889,-0.36373 6.10139,-1.4622 9.25,-2.44103 l 5.72476,-1.7797 -0.2041,-4.35428 c -0.11225,-2.39485 -0.50846,-10.31677 -0.88045,-17.60427 l -0.67635,-13.25 h -5.65031 c -5.35982,0 -5.70853,0.15423 -6.78269,3 -1.49554,3.96214 -2.9501,3.78779 -4.77172,-0.57197 -0.82086,-1.96459 -1.8731,-3.33673 -2.33831,-3.04921 -0.46521,0.28751 -5.76214,-0.12636 -11.77095,-0.91973 -6.00882,-0.79336 -12.38762,-1.44622 -14.17512,-1.45079 -3.04138,-0.008 -3.25,-0.2313 -3.25,-3.48226 v -3.47395 l 15.25,-0.27605 15.25,-0.27604 0.5,-7.20311 c 0.58263,-8.39344 1.94434,-10.56223 4.93333,-7.85723 1.52073,1.37624 2.04862,3.33269 2.27363,8.42637 l 0.29304,6.63397 h 5 5 L 423,564.4055 c 0.47157,-18.74949 0.6185,-19.95833 2.58424,-21.2619 1.84692,-1.22479 2.30236,-1.14143 4,0.73211 1.72392,1.90256 1.94674,4.05669 2.22519,21.51191 l 0.30942,19.39764 H 437.05943 442 v -6.38922 c 0,-4.93562 0.45502,-6.92631 2,-8.75 l 2,-2.36078 2,2.36078 c 1.54498,1.82369 2,3.81438 2,8.75 v 6.38922 h 15 15 v 3.4121 c 0,3.17899 -0.2562,3.44946 -3.75,3.95896 -5.40697,0.78849 -24.12453,1.90832 -24.84234,1.48626 -0.33424,-0.19653 -1.48831,1.35914 -2.56459,3.45704 -2.13747,4.16635 -3.96705,4.39652 -4.86057,0.6115 -0.52693,-2.23213 -1.04825,-2.42586 -6.52758,-2.42586 H 431.5 l -0.81705,13.5 c -0.44937,7.425 -0.89937,15.28049 -1,17.45666 -0.20336,4.39811 -1.5984,3.62003 13.56705,7.56702 5.2108,1.35617 6.20861,3.39341 2.15976,4.40961 -1.42463,0.35756 -10.87463,0.5812 -21,0.49699 C 407.24384,638.57276 406,638.43788 406,636.71915 Z"
       id="path9" />
  </g>
</svg>
