<?xml version="1.0" encoding="UTF-8" standalone="no"?>
<!-- Created with Inkscape (http://www.inkscape.org/) -->

<svg
   version="1.1"
   id="svg1"
   width="89"
   height="105.429"
   viewBox="0 0 89 105.429"
   xmlns="http://www.w3.org/2000/svg"
   xmlns:svg="http://www.w3.org/2000/svg">
  <defs
     id="defs1" />
  <g
     id="layer19"
     transform="translate(-769,-397.21059)">
    <path
       style="fill:#000000"
       d="m 799,501.37132 c 0,-0.77766 2.925,-3.04969 6.5,-5.04894 6.45948,-3.61234 6.5,-3.66235 6.5,-8.02097 0,-6.75142 -1.40745,-9.51615 -4.84441,-9.51615 -2.47683,0 -2.97921,-0.4684 -3.48583,-3.25 -0.32555,-1.7875 -0.8786,-4.2307 -1.22899,-5.42933 -0.55437,-1.89641 -0.20243,-2.22095 2.71108,-2.5 3.16479,-0.30311 3.36499,-0.55342 3.65565,-4.57067 l 0.3075,-4.25 H 789.0575 769 v -2.39302 c 0,-1.31615 0.61087,-2.62742 1.35749,-2.91392 1.09665,-0.42083 20.31805,-5.2971 24.14251,-6.12471 0.55,-0.11902 3.57965,-0.77587 6.73256,-1.45966 3.15291,-0.68379 6.01305,-1.69708 6.35587,-2.25177 0.34281,-0.55469 0.94852,-9.86191 1.34601,-20.68272 0.57334,-15.60794 1.07696,-20.35267 2.43672,-22.9569 0.94271,-1.80548 2.10273,-3.04246 2.57782,-2.74883 2.61523,1.61629 4.15256,10.78743 4.74725,28.32033 0.34119,10.05885 0.91815,18.47287 1.28213,18.69782 0.36398,0.22495 1.75525,0.6224 3.09171,0.8832 1.33646,0.26081 5.23958,1.20958 8.6736,2.10839 3.43402,0.8988 7.07388,1.79407 8.08858,1.98948 1.0147,0.19541 3.60505,0.83973 5.75633,1.43181 2.15128,0.59208 5.82392,1.54925 8.16142,2.12705 3.5182,0.86964 4.25,1.46116 4.25,3.43526 v 2.38474 l -19.23392,0.11064 c -10.57866,0.0609 -19.61144,0.48816 -20.07284,0.94957 -0.46141,0.46141 -0.69365,2.35864 -0.51608,4.21608 0.28383,2.96913 0.70104,3.41394 3.45321,3.68159 l 3.13036,0.30444 -1.14813,5.19556 c -1.05921,4.7932 -1.38961,5.21917 -4.26633,5.50042 -3.40788,0.33317 -4.34627,2.54278 -4.34627,10.23408 0,3.62382 0.28326,3.94734 6.5,7.42394 3.575,1.99925 6.5,4.30838 6.5,5.13138 0,1.54103 -1.45967,1.465 -11.20925,-0.58386 -2.30787,-0.48499 -6.08593,-0.26967 -10,0.56993 -7.91453,1.69773 -7.79075,1.69764 -7.79075,0.006 z"
       id="path11" />
  </g>
</svg>
