<?xml version="1.0" encoding="UTF-8" standalone="no"?>
<!-- Created with Inkscape (http://www.inkscape.org/) -->

<svg
   version="1.1"
   id="svg1"
   width="88"
   height="74.816536"
   viewBox="0 0 88 74.816536"
   xmlns="http://www.w3.org/2000/svg"
   xmlns:svg="http://www.w3.org/2000/svg">
  <defs
     id="defs1" />
  <g
     id="layer12"
     transform="translate(-381,-410.96877)">
    <path
       style="fill:#000000"
       d="m 406,482.28526 c 0,-3.37354 0.1355,-3.50087 3.75,-3.52386 3.68915,-0.0235 11.00505,-1.39786 11.82953,-2.22234 0.23159,-0.23159 -0.83569,-6.45844 -2.37173,-13.83744 -2.66977,-12.82532 -2.90633,-13.42975 -5.3696,-13.72017 -1.90413,-0.22451 -2.717,0.23232 -3.11388,1.75 -0.72411,2.76902 -2.56803,2.59508 -3.68691,-0.34779 -1.01889,-2.67989 -2.67115,-3.07562 -17.28741,-4.14047 L 381,445.60572 v -2.91023 c 0,-2.7562 0.22495,-2.91055 4.25,-2.91623 2.3375,-0.003 7.9625,-0.29499 12.5,-0.64822 l 8.25,-0.64222 v -4.76999 c 0,-5.99109 0.73453,-7.93357 3,-7.93357 2.27858,0 3,1.94344 3,8.08178 v 4.91822 h 3.45469 c 3.93409,0 3.95108,-0.0487 5.05987,-14.49769 0.62936,-8.20136 2.01908,-12.53976 4.24967,-13.26655 2.1853,-0.71203 4.044,5.89828 4.79002,17.03535 0.39528,5.90089 1.10728,10.77389 1.58222,10.82889 6.09113,0.70537 6.30566,0.54603 5.99811,-4.45509 -0.19551,-3.17928 0.26356,-5.6036 1.38526,-7.31553 1.52055,-2.32065 1.82389,-2.41423 3.23899,-0.99912 0.90162,0.90162 1.64944,3.59125 1.76986,6.36553 0.11469,2.64231 0.26765,5.09639 0.33992,5.45351 0.0723,0.35712 5.75639,0.97375 12.63139,1.37028 l 12.5,0.72098 v 2.78639 2.7864 l -9.75,0.65156 c -13.47712,0.90064 -15.2006,1.33255 -16.47457,4.12861 -1.38125,3.03152 -2.52517,3.04985 -3.8864,0.0623 -0.80258,-1.76146 -1.66732,-2.22966 -3.47856,-1.88342 -1.32576,0.25343 -2.41047,0.67578 -2.41047,0.93855 0,0.26277 -1.17529,6.32502 -2.61176,13.47166 -1.45444,7.23605 -2.2299,13.36332 -1.75,13.82758 0.47397,0.45852 4.01176,1.20631 7.86176,1.66176 6.96967,0.8245 7.00136,0.84217 7.31336,4.07809 l 0.31336,3.25 H 425.06336 406 Z"
       id="path16" />
  </g>
</svg>
