<?xml version="1.0" encoding="UTF-8" standalone="no"?>
<!-- Created with Inkscape (http://www.inkscape.org/) -->

<svg
   version="1.1"
   id="svg1"
   width="82.888382"
   height="106.77077"
   viewBox="0 0 82.888382 106.77077"
   xmlns="http://www.w3.org/2000/svg"
   xmlns:svg="http://www.w3.org/2000/svg">
  <defs
     id="defs1" />
  <g
     id="layer22"
     transform="translate(-26,-540.28526)">
    <path
       style="fill:#000000"
       d="m 65.7936,642.94173 c -1.525122,-3.88258 -1.776017,-4.06382 -4.454871,-3.21806 C 51.458248,642.84311 50.66659,641.65014 58,634.69246 l 5,-4.74383 -0.01101,-10.33169 c -0.0061,-5.68242 -0.282395,-11.97274 -0.614093,-13.97847 l -0.603088,-3.64679 -6.135906,1.77164 c -6.510309,1.87974 -23.94242,10.08437 -26.669425,12.55227 C 26.952911,618.13785 26,618.1842 26,616.4599 c 0,-0.72894 5.625,-5.7486 12.5,-11.1548 L 51,595.47566 v -5.73821 c 0,-4.43394 0.378954,-5.88363 1.667217,-6.37799 2.089502,-0.80182 2.956593,0.0851 4.0045,4.09622 L 57.5,590.62611 60,588.59254 c 1.638589,-1.33287 2.534126,-3.11441 2.599041,-5.17042 0.05447,-1.72528 0.166972,-11.07451 0.25,-20.77608 0.135598,-15.84432 0.348273,-17.87944 2.090041,-20 l 1.939082,-2.36078 2.310918,2.27576 c 2.245754,2.21159 2.320004,2.86673 2.633137,23.23333 l 0.322219,20.95757 2.86598,2.04075 2.865979,2.04076 0.311802,-3.68435 c 0.21667,-2.56025 0.832397,-3.75905 2.018113,-3.92919 2.604852,-0.37378 3.644084,1.60145 3.98381,7.57185 L 84.5,596.2376 l 8,6.31658 c 12.77526,10.08699 17.04873,13.94516 16.30758,14.72277 -0.38084,0.39957 -2.06207,-0.24878 -3.73607,-1.44077 C 98.369224,611.06373 73.995449,601.12314 72.547136,602.57145 72.246211,602.87238 72,609.21694 72,616.67048 v 13.55189 l 5.191407,5.2567 c 2.855274,2.89119 4.974062,5.47405 4.708418,5.73969 -0.265643,0.26565 -3.085556,-0.122 -6.266473,-0.86142 -4.238352,-0.98524 -5.875845,-1.04088 -6.12919,-0.20825 -0.190138,0.62489 -0.739166,2.43459 -1.220063,4.02155 l -0.874357,2.88539 z"
       id="path4" />
  </g>
</svg>
