<?xml version="1.0" encoding="UTF-8" standalone="no"?>
<!-- Created with Inkscape (http://www.inkscape.org/) -->

<svg
   version="1.1"
   id="svg1"
   width="85.456459"
   height="97.324677"
   viewBox="0 0 85.456459 97.324677"
   xmlns="http://www.w3.org/2000/svg"
   xmlns:svg="http://www.w3.org/2000/svg">
  <defs
     id="defs1" />
  <g
     id="layer27"
     transform="translate(-898.53387,-544.28526)">
    <path
       style="fill:#000000"
       d="m 925,641.30554 c 0,-2.53625 2.90755,-6.09719 7.06932,-8.65796 l 5.12477,-3.1533 -0.56811,-5.10451 c -0.31246,-2.80748 -0.8641,-9.71701 -1.22586,-15.35451 -0.73568,-11.46416 -0.46483,-11.17513 -8.7073,-9.29217 -3.46168,0.7908 -12.24508,2.65249 -26.34796,5.58458 -1.7039,0.35426 -2.0536,0.0598 -1.67019,-1.40635 0.31545,-1.20627 5.01489,-4.03034 13.44563,-8.07998 10.82481,-5.1996 12.86491,-6.52732 12.37952,-8.05666 -0.8006,-2.52247 1.50559,-3.7125 3.0641,-1.58112 1.16799,1.59733 1.48713,1.60665 4.34829,0.12709 3.5306,-1.82574 3.35238,-0.79838 3.21729,-18.54539 -0.12455,-16.36151 1.65871,-23.5 5.8705,-23.5 1.85744,0 2.94939,0.89958 4.24845,3.5 1.45313,2.90886 1.7487,6.29774 1.75,20.06478 l 0.002,16.56479 3.42189,1.63179 c 2.97512,1.41873 3.57865,1.44291 4.62245,0.18521 1.80736,-2.17773 2.95566,-1.74622 2.95566,1.1107 0,2.29392 1.33758,3.19499 12.98883,8.75 9.39513,4.47935 12.99191,6.68218 13,7.96178 0.0118,1.86635 0.075,1.86822 -9.48883,-0.28065 -29.83981,-6.70464 -27.49849,-6.93971 -27.50599,2.7616 -0.003,4.2625 -0.26861,11.35 -0.58959,15.75 l -0.58359,8 4.96799,2.68182 c 3.40882,1.84014 5.29408,3.61724 6.00701,5.66234 l 1.03901,2.98052 -7.09257,-2.41234 c -7.51341,-2.55548 -9.1273,-2.87386 -8.42642,-1.66234 0.23864,0.4125 0.0918,1.65 -0.3264,2.75 -0.69366,1.82473 -0.82364,1.75901 -1.48328,-0.75 -0.39764,-1.5125 -1.11393,-2.75 -1.59175,-2.75 -0.47782,0 -3.80404,1.10483 -7.39159,2.45518 -3.58756,1.35035 -6.52283,2.27965 -6.52283,2.0651 z"
       id="path8" />
  </g>
</svg>
