<?xml version="1.0" encoding="UTF-8" standalone="no"?>
<!-- Created with Inkscape (http://www.inkscape.org/) -->

<svg
   version="1.1"
   id="svg1"
   width="83.023552"
   height="91.78566"
   viewBox="0 0 83.023552 91.78566"
   xmlns="http://www.w3.org/2000/svg"
   xmlns:svg="http://www.w3.org/2000/svg">
  <defs
     id="defs1" />
  <g
     id="layer2"
     transform="translate(-25.629508,-398.08481)">
    <path
       style="fill:#000000"
       d="m 54,489.7419 c 0,-0.41149 2.138796,-2.12061 4.752879,-3.79807 l 4.75288,-3.04991 -0.03785,-17.30433 c -0.02082,-9.51739 -0.386171,-17.86683 -0.811897,-18.55433 -1.386022,-2.23828 -4.907438,-1.30658 -21.323785,5.64182 -8.892275,3.76375 -15.955379,6.34031 -15.695786,5.72568 0.259592,-0.61463 2.911012,-2.9175 5.892043,-5.1175 4.249631,-3.13623 5.425612,-4.59385 5.445786,-6.75 0.01415,-1.5125 0.475729,-2.75 1.025729,-2.75 0.55,0 1,0.675 1,1.5 0,2.12277 0.409567,1.97547 7.054869,-2.53727 5.338306,-3.62517 5.945131,-4.3907 5.945131,-7.5 0,-2.41132 0.455455,-3.46273 1.5,-3.46273 0.943315,0 1.5,0.95155 1.5,2.56398 v 2.56399 l 4,-2.24813 4,-2.24813 V 417.2119 c 0,-13.0199 0.292187,-15.7538 1.798187,-17.61363 2.103781,-2.59806 4.451845,-1.75443 6.066363,1.78905 C 71.544257,402.87911 72,409.67228 72,418.31198 v 14.43263 l 4,2.04065 4,2.04064 v -2.52032 c 0,-4.14959 2.829532,-3.11171 3.189635,1.16996 0.269235,3.20125 1.02999,4.18821 5.740667,7.44759 C 94.368255,446.68572 96,446.97286 96,444.16722 c 0,-2.69669 1.998478,-0.33733 2.055813,2.42705 0.04225,2.0372 1.394534,3.74802 5.565957,7.0417 3.03057,2.39289 5.28436,4.57649 5.00842,4.85243 -0.27595,0.27595 -5.81813,-1.75729 -12.315958,-4.51832 -6.497828,-2.76102 -14.169947,-5.83533 -17.049154,-6.8318 -7.931108,-2.74487 -8.100891,-2.37712 -8.377981,18.14698 l -0.229512,17 4.921207,3.25654 c 2.706665,1.79111 5.04674,3.6302 5.200168,4.08688 0.153428,0.45669 -2.473198,-0.072 -5.836947,-1.17488 -4.853287,-1.59124 -6.279416,-1.74065 -6.90791,-0.72372 -0.634203,1.02616 -0.886101,1.00989 -1.264297,-0.0817 -0.382519,-1.10404 -1.641082,-0.96352 -6.62105,0.73924 C 56.76694,489.54397 54,490.15338 54,489.7419 Z"
       id="path15" />
  </g>
</svg>
