<?xml version="1.0" encoding="UTF-8" standalone="no"?>
<!-- Created with Inkscape (http://www.inkscape.org/) -->

<svg
   version="1.1"
   id="svg1"
   width="82.128601"
   height="122.5"
   viewBox="0 0 82.128601 122.5"
   xmlns="http://www.w3.org/2000/svg"
   xmlns:svg="http://www.w3.org/2000/svg">
  <defs
     id="defs1" />
  <g
     id="layer26"
     transform="translate(-510.87166,-538.78526)">
    <path
       style="fill:#000000"
       d="m 550.96174,658.03526 c -0.63656,-1.7875 -1.26852,-3.25 -1.40434,-3.25 -0.13582,0 -2.78086,0.83594 -5.87786,1.85765 -3.097,1.0217 -5.84537,1.64318 -6.10749,1.38107 -0.44407,-0.44408 3.59567,-4.05326 9.78125,-8.73872 l 2.64032,-2 -0.97164,-16 c -1.21558,-20.01689 -1.9487,-25.80352 -3.3871,-26.73469 -1.68468,-1.09061 -8.10417,-0.9176 -11.31978,0.30508 -2.9811,1.13351 -21.23412,5.905 -22.64843,5.92048 -2.64431,0.029 1.26807,-2.78314 12.33408,-8.86533 l 12.49925,-6.86993 0.3075,-4.12781 c 0.24412,-3.27709 0.69814,-4.1278 2.20294,-4.1278 1.35912,0 1.83803,0.63665 1.69251,2.25 -0.22929,2.54198 0.80912,2.92944 3.97957,1.48488 2.13296,-0.97184 2.18973,-1.4967 2.5,-23.11465 0.27133,-18.90454 0.57562,-22.5927 2.09316,-25.37023 0.97662,-1.7875 2.22074,-3.25 2.7647,-3.25 0.54396,0 1.88072,1.4625 2.97058,3.25 1.81482,2.97652 1.98188,5.08139 1.9853,25.01469 l 0.004,21.7647 3.25,1.98555 3.25,1.98554 0.31336,-3.00024 c 0.3679,-3.52249 3.13221,-4.15229 3.29294,-0.75024 0.0585,1.2375 0.17096,3.05821 0.25,4.04604 0.0934,1.16703 3.12055,3.38734 8.6437,6.33979 13.3527,7.13782 17,9.37466 17,10.42588 0,1.17714 -1.57531,0.91443 -14.5,-2.41811 -5.5,-1.41813 -12.475,-2.70559 -15.5,-2.86101 l -5.5,-0.28259 -0.79484,6 c -0.43716,3.3 -1.03812,13.02742 -1.33546,21.6165 l -0.54063,15.6165 6.08546,4.78101 c 3.34701,2.62956 6.08547,5.19119 6.08547,5.69252 0,0.50132 -0.3375,0.70732 -0.75,0.45776 -0.4125,-0.24956 -3.14088,-1.16029 -6.06306,-2.02384 l -5.31307,-1.57011 -1.37737,3.21483 -1.37737,3.21483 z"
       id="path2" />
  </g>
</svg>
