<?xml version="1.0" encoding="UTF-8" standalone="no"?>
<!-- Created with Inkscape (http://www.inkscape.org/) -->

<svg
   version="1.1"
   id="svg1"
   width="81.751099"
   height="90.924484"
   viewBox="0 0 81.751099 90.924484"
   xmlns="http://www.w3.org/2000/svg"
   xmlns:svg="http://www.w3.org/2000/svg">
  <defs
     id="defs1" />
  <g
     id="layer28"
     transform="translate(-650,-405.78526)">
    <path
       style="fill:#000000"
       d="m 677.98214,496.04559 c 0.81518,-0.31997 2.11582,-1.21544 2.89031,-1.98993 0.7745,-0.77449 2.48018,-2.11057 3.79041,-2.96907 2.37805,-1.55816 2.38175,-1.59164 2.10969,-19.07328 -0.23492,-15.09433 -0.50353,-17.65791 -1.94537,-18.56641 -1.47689,-0.93059 -14.03528,3.56203 -33.57718,12.01184 -0.6875,0.29727 -1.25,0.10162 -1.25,-0.43478 0,-0.5364 5.625,-5.14382 12.5,-10.2387 9.65452,-7.15471 12.5,-9.78393 12.5,-11.54993 0,-2.94296 0.96924,-5.45007 2.10699,-5.45007 0.49115,0 0.89301,1.05 0.89301,2.33333 0,3.45438 0.80403,3.71484 4.58361,1.48483 L 686,439.5877 v -13.95088 c 0,-14.89527 1.21467,-19.85156 4.86517,-19.85156 3.20771,0 4.13483,4.3783 4.13483,19.52672 v 14.43263 l 4,2.04065 c 4.2405,2.16334 4.4462,2.03082 4.26865,-2.75 -0.0255,-0.6875 0.57857,-1.25 1.34246,-1.25 0.96287,0 1.39759,1.30361 1.41725,4.25 0.0271,4.05884 0.26981,4.39607 5.39637,7.49757 4.95261,2.99627 11.02243,7.37131 18.05867,13.01643 4.16673,3.34293 2.38802,3.7933 -3.66956,0.92914 -8.92121,-4.21815 -25.73969,-10.69314 -27.77492,-10.69314 -1.05649,0 -2.16628,0.39705 -2.46621,0.88234 -0.29992,0.4853 -0.73298,8.7913 -0.96235,18.45779 l -0.41704,17.57543 4.94136,3.17086 c 2.71775,1.74398 4.72841,3.38382 4.46812,3.6441 -0.26028,0.26029 -2.76868,-0.28918 -5.57423,-1.22103 -3.85104,-1.27911 -5.43585,-1.41637 -6.46753,-0.56015 -1.0223,0.84843 -1.46502,0.83872 -1.75744,-0.0385 -0.28794,-0.86382 -1.86856,-0.74312 -6.00116,0.45826 -5.38222,1.56465 -8.91347,2.10541 -5.8203,0.89128 z"
       id="path12" />
  </g>
</svg>
