<?xml version="1.0" encoding="UTF-8" standalone="no"?>
<!-- Created with Inkscape (http://www.inkscape.org/) -->

<svg
   version="1.1"
   id="svg1"
   width="88.363853"
   height="81.758484"
   viewBox="0 0 88.363853 81.758484"
   xmlns="http://www.w3.org/2000/svg"
   xmlns:svg="http://www.w3.org/2000/svg">
  <defs
     id="defs1" />
  <g
     id="layer21"
     transform="translate(-1146,-398.0263)">
    <path
       style="fill:#000000"
       d="m 1174,479.15273 c 0,-0.34788 2.925,-3.31275 6.5,-6.58859 l 6.5,-5.95607 v -9.78928 c 0,-6.47794 -0.5119,-11.01451 -1.5134,-13.41141 -0.8324,-1.99217 -1.7371,-3.62212 -2.0105,-3.62212 -0.2735,0 -8.5877,4.05 -18.4761,9 -9.8884,4.95 -18.2087,9 -18.4895,9 -0.2808,0 -0.5105,-1.09954 -0.5105,-2.44341 0,-1.89759 1.5566,-3.51713 6.9682,-7.25 6.7593,-4.66244 6.9692,-4.93406 7,-9.05659 0.017,-2.3375 0.4818,-4.25 1.0318,-4.25 0.55,0 1,1.35 1,3 0,1.65 0.2367,3 0.526,3 0.2893,0 2.7643,-1.67106 5.5,-3.71346 4.4358,-3.31166 4.974,-4.12316 4.974,-7.5 0,-4.33204 1.1755,-4.93613 2.557,-1.31406 l 0.943,2.47249 4.75,-3.4822 4.75,-3.48221 0.077,-8.74028 c 0.079,-9.00208 1.6062,-16.30133 3.5457,-16.94782 1.9661,-0.65536 3.3021,4.98493 3.5929,15.16845 l 0.2845,9.9609 5,3.80482 5,3.80481 0.943,-2.51572 c 1.1713,-3.12463 2.7631,-3.29261 2.5179,-0.26572 -0.3649,4.50393 0.1253,5.38742 5.0131,9.03654 5.6457,4.21488 6.222,4.4043 5.9737,1.96346 -0.3112,-3.05919 0.021,-4.25 1.184,-4.25 0.731,0 0.9531,1.33131 0.6273,3.76032 -0.4928,3.67384 -0.3472,3.87508 6.3285,8.75 3.9972,2.9189 7.2429,6.13096 7.8207,7.73968 0.5794,1.61313 0.6091,2.75 0.072,2.75 -0.5038,0 -9.0202,-4.05 -18.9253,-9 -9.9052,-4.95 -18.2385,-9 -18.5185,-9 -0.2801,0 -1.1903,1.62995 -2.0227,3.62212 -0.9999,2.3932 -1.5134,6.92886 -1.5134,13.36839 v 9.74627 l 6.595,6.20328 c 3.6272,3.41181 6.4051,6.39313 6.1731,6.62515 -0.232,0.23203 -3.2851,-0.70023 -6.7846,-2.07168 -7.8414,-3.07304 -7.9835,-3.07292 -7.9835,0.006 0,1.375 -0.45,2.5 -1,2.5 -0.55,0 -1,-1.125 -1,-2.5 0,-1.375 -0.3647,-2.5 -0.8104,-2.5 -0.4457,0 -3.681,1.125 -7.1896,2.5 -7.0827,2.7757 -7,2.75363 -7,1.86747 z"
       id="path17" />
  </g>
</svg>
