<?xml version="1.0" encoding="UTF-8" standalone="no"?>
<!-- Created with Inkscape (http://www.inkscape.org/) -->

<svg
   version="1.1"
   id="svg1"
   width="92.356575"
   height="89.538185"
   viewBox="0 0 92.356575 89.538185"
   xmlns="http://www.w3.org/2000/svg"
   xmlns:svg="http://www.w3.org/2000/svg">
  <defs
     id="defs1" />
  <g
     id="layer4"
     transform="translate(-258.01526,-402.24707)">
    <path
       style="fill:#000000"
       d="m 286,489.26402 c 0,-1.86796 1.6633,-3.69487 7,-7.68857 l 7,-5.23841 v -14.20257 c 0,-12.71738 -0.183,-14.2416 -1.75,-14.57585 -4.07074,-0.8683 -21.70993,3.70582 -35,9.07604 -3.68045,1.48719 -5.24542,1.75207 -5.23469,0.886 0.0294,-2.376 1.74818,-3.90976 9.58669,-8.55496 7.01887,-4.15946 7.93288,-5.0422 8.21136,-7.93044 0.33748,-3.50018 2.18664,-4.55726 2.18664,-1.25 0,2.40125 0.26366,2.43213 4.04966,0.47432 2.27071,-1.17423 2.98486,-2.26843 3.10017,-4.75 0.14223,-3.06077 0.17109,-3.08354 0.56886,-0.44904 l 0.41903,2.77528 3.93114,-2.20942 c 3.35424,-1.88519 3.95313,-2.73272 4.08097,-5.77529 0.12701,-3.02275 0.21328,-3.14701 0.56642,-0.81585 0.45048,2.97365 1.82692,3.41415 4.44533,1.4226 1.35175,-1.02812 1.72469,-3.53342 2,-13.43524 0.26274,-9.44949 0.69308,-12.5255 1.92432,-13.7546 3.07843,-3.07307 4.38114,0.61973 4.73327,13.4175 0.28946,10.52012 0.52215,11.76054 2.5,13.3275 2.96412,2.34832 3.68083,2.20662 3.68083,-0.72776 0,-1.375 0.45,-2.5 1,-2.5 0.55,0 1,1.53829 1,3.41844 0,2.80258 0.60677,3.79344 3.36803,5.5 4.33903,2.68166 4.96837,2.62164 4.38722,-0.41844 -0.26285,-1.375 -0.0903,-2.5 0.38342,-2.5 0.47373,0 0.86133,1.31733 0.86133,2.92742 0,1.97147 0.86041,3.60422 2.63486,5 3.45668,2.71902 4.14966,2.61804 4.64889,-0.67742 0.39737,-2.62317 0.4235,-2.60381 0.56642,0.41968 0.13411,2.8372 1.03336,3.72423 8.57269,8.45629 5.62902,3.53305 8.563,6.0197 8.84535,7.49677 0.45812,2.39646 -0.34437,2.27796 -7.75319,-1.14483 -9.67004,-4.46743 -25.62981,-8.22493 -32.26502,-7.59634 -0.93467,0.0885 -1.25,3.641 -1.25,14.08216 v 13.96373 l 6.97602,5.78627 c 4.80642,3.98669 6.98347,6.48603 7,8.03627 0.0132,1.2375 -0.15532,2.25 -0.37447,2.25 -0.21915,0 -2.80665,-1.23937 -5.75,-2.75415 -12.68894,-6.5303 -12.03079,-6.39557 -17.47966,-3.5783 -2.67954,1.38542 -6.78439,3.36099 -9.12189,4.39016 l -4.25,1.87121 z"
       id="path14" />
  </g>
</svg>
