<?xml version="1.0" encoding="UTF-8" standalone="no"?>
<!-- Created with Inkscape (http://www.inkscape.org/) -->

<svg
   version="1.1"
   id="svg1"
   width="84.892769"
   height="97.137558"
   viewBox="0 0 84.892769 97.137558"
   xmlns="http://www.w3.org/2000/svg"
   xmlns:svg="http://www.w3.org/2000/svg">
  <defs
     id="defs1" />
  <g
     id="layer20"
     transform="translate(-896.10723,-397.13773)">
    <path
       style="fill:#000000"
       d="m 922,494.23444 c 0,-2.26129 3.20358,-5.90998 6.73951,-7.67591 2.42367,-1.21043 4.62953,-2.56137 4.9019,-3.00208 0.57194,-0.92542 -1.51874,-30.98185 -2.20262,-31.66574 -0.48564,-0.48564 -21.29616,3.52471 -33.26969,6.41132 -1.76814,0.42627 -2.25101,0.1797 -2,-1.02122 0.18472,-0.8838 5.85279,-4.32477 12.8309,-7.78936 9.88451,-4.90761 12.56686,-6.67698 12.81955,-8.45619 0.36879,-2.59667 0.55137,-2.65982 3.09592,-1.07072 1.51334,0.94509 2.40429,0.84122 4.48643,-0.52305 2.57963,-1.69024 2.5981,-1.79589 2.5981,-14.86368 0,-13.29635 1.51452,-22.08919 4.50293,-26.14269 1.82769,-2.4791 2.96809,-1.55997 5.08863,4.1013 1.2928,3.45145 1.93308,8.96083 2.3436,20.16611 l 0.56484,15.41728 3.16832,1.76677 c 2.673,1.49057 3.25435,1.54259 3.71861,0.33273 0.8905,-2.32059 3.62246,-1.73238 3.35128,0.72155 -0.20308,1.83775 1.71558,3.12252 13.01179,8.71297 7.2875,3.60656 13.25,7.13653 13.25,7.8444 0,1.52116 -0.22909,1.53136 -5.75617,0.25616 -2.3409,-0.54009 -5.9409,-1.24859 -8,-1.57445 -2.05911,-0.32586 -4.04653,-0.77801 -4.41649,-1.00479 -0.74606,-0.45733 -9.35137,-2.18802 -14.90682,-2.99806 l -3.57948,-0.52192 -1.03617,14.22079 c -0.5699,7.82143 -0.81551,15.06462 -0.5458,16.09598 0.26971,1.03136 2.46952,3.03505 4.88848,4.45266 4.15524,2.43513 6.35245,4.94423 6.35245,7.25417 0,0.56375 -3.39092,-0.17039 -7.53538,-1.63141 -8.0834,-2.84959 -7.51771,-2.87893 -19.71462,1.0227 -2.6125,0.8357 -4.75,1.35967 -4.75,1.16438 z"
       id="path13" />
  </g>
</svg>
